<svg width="0" height="0" class="hidden">
  <symbol version="1.0" xmlns="http://www.w3.org/2000/svg" preserveAspectRatio="xMidYMid meet" viewBox="0 0 7560 4290" id="ticket">
    <g id="layer1" fill="#000000" stroke="none">
      <path d="M395 4010 c-3 -5 -24 -247 -46 -536 -28 -375 -37 -530 -29 -538 6 -6 57 -33 113 -61 l102 -50 36 -91 36 -91 -23 -123 c-25 -132 -22 -125 -144 -261 l-25 -27 -104 15 c-64 9 -107 11 -113 5 -15 -15 -161 -1033 -150 -1044 6 -6 1550 -235 3433 -510 2910 -424 3425 -497 3434 -485 5 8 57 206 115 441 l104 426 -47 48 c-29 30 -78 63 -126 87 l-79 38 -45 127 -45 126 14 79 c7 43 15 79 16 80 2 2 94 48 204 103 160 80 203 106 207 124 3 13 47 234 97 491 94 486 95 488 51 502 -16 5 -6957 1135 -6973 1135 -4 0 -10 -4 -13 -10z"></path>
    </g>
  </symbol>
</svg>